<?xml version="1.0" standalone="no"?>
<!DOCTYPE svg PUBLIC "-//W3C//DTD SVG 20010904//EN"
 "http://www.w3.org/TR/2001/REC-SVG-20010904/DTD/svg10.dtd">
<svg version="1.0" xmlns="http://www.w3.org/2000/svg"
 width="80.000000pt" height="80.000000pt" viewBox="0 0 80.000000 80.000000"
 preserveAspectRatio="xMidYMid meet">

<g transform="translate(0.000000,80.000000) scale(0.100000,-0.100000)"
fill="#000000" stroke="none">
<path d="M162 677 c-51 -54 4 -137 72 -111 27 10 18 24 -12 18 -50 -10 -82 45
-46 80 20 21 48 20 69 0 9 -9 19 -13 23 -9 11 10 -37 45 -62 45 -13 0 -32 -10
-44 -23z"/>
<path d="M347 670 c-14 -16 -32 -30 -39 -30 -35 0 -52 -55 -22 -67 9 -3 25 -1
36 6 15 9 23 9 41 -4 31 -21 60 -19 85 8 29 30 28 62 -3 92 -33 34 -67 32 -98
-5z m87 -6 c31 -30 9 -84 -34 -84 -10 0 -26 7 -34 16 -31 30 -9 84 34 84 10 0
26 -7 34 -16z m-114 -53 c0 -12 -20 -25 -27 -18 -7 7 6 27 18 27 5 0 9 -4 9
-9z"/>
<path d="M542 677 c-28 -30 -28 -68 1 -95 30 -28 68 -28 95 1 28 30 28 68 -1
95 -30 28 -68 28 -95 -1z m82 -13 c20 -20 20 -48 0 -68 -20 -20 -48 -20 -68 0
-31 30 -9 84 34 84 10 0 26 -7 34 -16z"/>
<path d="M114 515 c-24 -24 -25 -30 -22 -127 3 -96 5 -104 26 -113 20 -9 22
-17 22 -80 0 -42 5 -76 12 -83 14 -14 98 -16 98 -3 0 6 -19 11 -42 13 l-43 3
-3 82 c-3 76 -4 82 -25 85 -21 3 -22 9 -25 95 -4 119 7 133 104 133 41 0 63 4
59 10 -3 6 -35 10 -71 10 -56 0 -68 -3 -90 -25z"/>
<path d="M320 514 c-22 -19 -36 -47 -56 -111 -14 -46 -23 -91 -20 -99 10 -26
45 -16 59 18 12 29 13 26 9 -40 -4 -61 -2 -72 12 -72 12 0 16 -10 16 -43 0
-52 13 -67 60 -67 47 0 60 15 60 67 0 32 4 43 15 43 11 0 15 11 15 39 0 22 6
44 15 51 20 17 21 150 0 189 -17 35 -35 43 -102 47 -45 2 -58 -1 -83 -22z m68
-6 c9 -9 15 -9 24 0 18 18 36 15 63 -13 22 -21 25 -33 25 -100 0 -58 -3 -77
-15 -81 -10 -4 -15 -20 -15 -45 0 -31 -4 -39 -18 -39 -15 0 -18 -9 -17 -52 l0
-53 -35 0 -35 0 0 53 c1 44 -2 52 -18 52 -17 0 -18 7 -11 105 8 124 -4 137
-36 40 -12 -36 -26 -65 -31 -65 -12 0 -12 1 13 86 29 101 72 146 106 112z"/>
<path d="M390 435 c0 -30 5 -55 10 -55 6 0 10 25 10 55 0 30 -4 55 -10 55 -5
0 -10 -25 -10 -55z"/>
<path d="M450 420 c0 -5 5 -10 10 -10 6 0 10 5 10 10 0 6 -4 10 -10 10 -5 0
-10 -4 -10 -10z"/>
<path d="M450 380 c0 -5 5 -10 10 -10 6 0 10 5 10 10 0 6 -4 10 -10 10 -5 0
-10 -4 -10 -10z"/>
<path d="M450 340 c0 -5 5 -10 10 -10 6 0 10 5 10 10 0 6 -4 10 -10 10 -5 0
-10 -4 -10 -10z"/>
<path d="M390 220 c0 -5 5 -10 10 -10 6 0 10 5 10 10 0 6 -4 10 -10 10 -5 0
-10 -4 -10 -10z"/>
<path d="M525 530 c-4 -6 18 -10 59 -10 97 0 108 -14 104 -133 -3 -86 -4 -92
-25 -95 -21 -3 -22 -9 -25 -85 l-3 -82 -45 0 -45 0 -3 78 c-2 42 -7 77 -12 77
-15 0 -12 -154 2 -168 16 -16 100 -16 116 0 7 7 12 41 12 83 0 63 2 71 23 80
20 9 22 17 25 113 3 97 2 103 -22 127 -22 22 -34 25 -90 25 -36 0 -68 -4 -71
-10z"/>
<path d="M140 440 c0 -5 5 -10 10 -10 6 0 10 5 10 10 0 6 -4 10 -10 10 -5 0
-10 -4 -10 -10z"/>
<path d="M640 440 c0 -5 5 -10 10 -10 6 0 10 5 10 10 0 6 -4 10 -10 10 -5 0
-10 -4 -10 -10z"/>
<path d="M140 400 c0 -5 5 -10 10 -10 6 0 10 5 10 10 0 6 -4 10 -10 10 -5 0
-10 -4 -10 -10z"/>
<path d="M640 400 c0 -5 5 -10 10 -10 6 0 10 5 10 10 0 6 -4 10 -10 10 -5 0
-10 -4 -10 -10z"/>
<path d="M140 360 c0 -5 5 -10 10 -10 6 0 10 5 10 10 0 6 -4 10 -10 10 -5 0
-10 -4 -10 -10z"/>
<path d="M640 360 c0 -5 5 -10 10 -10 6 0 10 5 10 10 0 6 -4 10 -10 10 -5 0
-10 -4 -10 -10z"/>
<path d="M140 320 c0 -5 5 -10 10 -10 6 0 10 5 10 10 0 6 -4 10 -10 10 -5 0
-10 -4 -10 -10z"/>
<path d="M640 320 c0 -5 5 -10 10 -10 6 0 10 5 10 10 0 6 -4 10 -10 10 -5 0
-10 -4 -10 -10z"/>
<path d="M230 210 l0 -60 30 0 30 0 0 60 0 60 -30 0 -30 0 0 -60z m40 0 c0
-22 -4 -40 -10 -40 -5 0 -10 18 -10 40 0 22 5 40 10 40 6 0 10 -18 10 -40z"/>
</g>
</svg>
